<mxfile host="app.diagrams.net" modified="2023-10-19T08:34:02.282Z" agent="Mozilla/5.0 (Windows NT 10.0; Win64; x64) AppleWebKit/537.36 (KHTML, like Gecko) Chrome/118.0.0.0 Safari/537.36" etag="WNXATHXBmHms4RX-Jy49" version="22.0.5" type="github" pages="3">
  <diagram name="Use Case" id="fZrtdtVvw1iG8bWocpHl">
    <mxGraphModel dx="1687" dy="882" grid="1" gridSize="10" guides="1" tooltips="1" connect="1" arrows="1" fold="1" page="1" pageScale="1" pageWidth="850" pageHeight="1100" math="0" shadow="0">
      <root>
        <mxCell id="0" />
        <mxCell id="1" parent="0" />
        <mxCell id="sxIQwb_I3t_nb9_98Hzz-22" value="" style="rounded=0;whiteSpace=wrap;html=1;fillColor=none;verticalAlign=bottom;" vertex="1" parent="1">
          <mxGeometry x="190" y="20" width="450" height="820" as="geometry" />
        </mxCell>
        <mxCell id="sxIQwb_I3t_nb9_98Hzz-1" value="Pegawai" style="shape=umlActor;verticalLabelPosition=bottom;verticalAlign=top;html=1;outlineConnect=0;" vertex="1" parent="1">
          <mxGeometry x="680" y="340" width="30" height="60" as="geometry" />
        </mxCell>
        <mxCell id="sxIQwb_I3t_nb9_98Hzz-2" value="Admin HR" style="shape=umlActor;verticalLabelPosition=bottom;verticalAlign=top;html=1;outlineConnect=0;" vertex="1" parent="1">
          <mxGeometry x="90" y="220" width="30" height="60" as="geometry" />
        </mxCell>
        <mxCell id="sxIQwb_I3t_nb9_98Hzz-3" value="Membuat rumus komponen gaji" style="ellipse;whiteSpace=wrap;html=1;" vertex="1" parent="1">
          <mxGeometry x="290" y="360" width="270" height="70" as="geometry" />
        </mxCell>
        <mxCell id="sxIQwb_I3t_nb9_98Hzz-4" value="Appraiser&lt;br&gt;(Penilai)" style="shape=umlActor;verticalLabelPosition=bottom;verticalAlign=top;html=1;outlineConnect=0;" vertex="1" parent="1">
          <mxGeometry x="90" y="460" width="30" height="60" as="geometry" />
        </mxCell>
        <mxCell id="sxIQwb_I3t_nb9_98Hzz-6" value="Mengekspor slip gaji" style="ellipse;whiteSpace=wrap;html=1;" vertex="1" parent="1">
          <mxGeometry x="290" y="270" width="270" height="70" as="geometry" />
        </mxCell>
        <mxCell id="sxIQwb_I3t_nb9_98Hzz-7" value="Membuat slip gaji (Run Payroll)" style="ellipse;whiteSpace=wrap;html=1;" vertex="1" parent="1">
          <mxGeometry x="290" y="90" width="270" height="70" as="geometry" />
        </mxCell>
        <mxCell id="sxIQwb_I3t_nb9_98Hzz-8" value="Mengintegrasikan hasil penilaian ke dalam komponen gaji" style="ellipse;whiteSpace=wrap;html=1;" vertex="1" parent="1">
          <mxGeometry x="290" y="450" width="270" height="70" as="geometry" />
        </mxCell>
        <mxCell id="sxIQwb_I3t_nb9_98Hzz-9" value="Melihat riwayat gaji" style="ellipse;whiteSpace=wrap;html=1;" vertex="1" parent="1">
          <mxGeometry x="290" y="180" width="270" height="70" as="geometry" />
        </mxCell>
        <mxCell id="sxIQwb_I3t_nb9_98Hzz-10" value="Menilai Karyawan" style="ellipse;whiteSpace=wrap;html=1;" vertex="1" parent="1">
          <mxGeometry x="290" y="630" width="270" height="70" as="geometry" />
        </mxCell>
        <mxCell id="sxIQwb_I3t_nb9_98Hzz-11" value="Membuat form penilaian (BARS)" style="ellipse;whiteSpace=wrap;html=1;" vertex="1" parent="1">
          <mxGeometry x="290" y="540" width="270" height="70" as="geometry" />
        </mxCell>
        <mxCell id="sxIQwb_I3t_nb9_98Hzz-12" value="Melihat riwayat penilaian&amp;nbsp;" style="ellipse;whiteSpace=wrap;html=1;" vertex="1" parent="1">
          <mxGeometry x="290" y="720" width="270" height="70" as="geometry" />
        </mxCell>
        <mxCell id="sxIQwb_I3t_nb9_98Hzz-13" value="" style="endArrow=classic;html=1;rounded=0;entryX=1;entryY=0.5;entryDx=0;entryDy=0;exitX=0;exitY=0.3333333333333333;exitDx=0;exitDy=0;exitPerimeter=0;" edge="1" parent="1" source="sxIQwb_I3t_nb9_98Hzz-1" target="sxIQwb_I3t_nb9_98Hzz-12">
          <mxGeometry width="50" height="50" relative="1" as="geometry">
            <mxPoint x="590" y="440" as="sourcePoint" />
            <mxPoint x="640" y="390" as="targetPoint" />
          </mxGeometry>
        </mxCell>
        <mxCell id="sxIQwb_I3t_nb9_98Hzz-14" value="" style="endArrow=classic;html=1;rounded=0;exitX=0;exitY=0.3333333333333333;exitDx=0;exitDy=0;exitPerimeter=0;entryX=1;entryY=0.5;entryDx=0;entryDy=0;" edge="1" parent="1" source="sxIQwb_I3t_nb9_98Hzz-1" target="sxIQwb_I3t_nb9_98Hzz-9">
          <mxGeometry width="50" height="50" relative="1" as="geometry">
            <mxPoint x="730" y="370" as="sourcePoint" />
            <mxPoint x="630" y="250" as="targetPoint" />
          </mxGeometry>
        </mxCell>
        <mxCell id="sxIQwb_I3t_nb9_98Hzz-15" value="" style="endArrow=classic;html=1;rounded=0;exitX=1;exitY=0.3333333333333333;exitDx=0;exitDy=0;exitPerimeter=0;entryX=0;entryY=0.5;entryDx=0;entryDy=0;" edge="1" parent="1" source="sxIQwb_I3t_nb9_98Hzz-2" target="sxIQwb_I3t_nb9_98Hzz-7">
          <mxGeometry width="50" height="50" relative="1" as="geometry">
            <mxPoint x="730" y="370" as="sourcePoint" />
            <mxPoint x="550" y="265" as="targetPoint" />
          </mxGeometry>
        </mxCell>
        <mxCell id="sxIQwb_I3t_nb9_98Hzz-16" value="" style="endArrow=classic;html=1;rounded=0;exitX=1;exitY=0.3333333333333333;exitDx=0;exitDy=0;exitPerimeter=0;entryX=0;entryY=0.5;entryDx=0;entryDy=0;" edge="1" parent="1" source="sxIQwb_I3t_nb9_98Hzz-2" target="sxIQwb_I3t_nb9_98Hzz-6">
          <mxGeometry width="50" height="50" relative="1" as="geometry">
            <mxPoint x="120" y="260" as="sourcePoint" />
            <mxPoint x="280" y="175" as="targetPoint" />
          </mxGeometry>
        </mxCell>
        <mxCell id="sxIQwb_I3t_nb9_98Hzz-17" value="" style="endArrow=classic;html=1;rounded=0;exitX=1;exitY=0.3333333333333333;exitDx=0;exitDy=0;exitPerimeter=0;entryX=0;entryY=0.5;entryDx=0;entryDy=0;" edge="1" parent="1" source="sxIQwb_I3t_nb9_98Hzz-2" target="sxIQwb_I3t_nb9_98Hzz-3">
          <mxGeometry width="50" height="50" relative="1" as="geometry">
            <mxPoint x="120" y="260" as="sourcePoint" />
            <mxPoint x="280" y="355" as="targetPoint" />
          </mxGeometry>
        </mxCell>
        <mxCell id="sxIQwb_I3t_nb9_98Hzz-18" value="" style="endArrow=classic;html=1;rounded=0;exitX=1;exitY=0.3333333333333333;exitDx=0;exitDy=0;exitPerimeter=0;entryX=0;entryY=0.5;entryDx=0;entryDy=0;" edge="1" parent="1" source="sxIQwb_I3t_nb9_98Hzz-2" target="sxIQwb_I3t_nb9_98Hzz-8">
          <mxGeometry width="50" height="50" relative="1" as="geometry">
            <mxPoint x="120" y="260" as="sourcePoint" />
            <mxPoint x="280" y="445" as="targetPoint" />
          </mxGeometry>
        </mxCell>
        <mxCell id="sxIQwb_I3t_nb9_98Hzz-19" value="" style="endArrow=classic;html=1;rounded=0;exitX=1;exitY=0.3333333333333333;exitDx=0;exitDy=0;exitPerimeter=0;entryX=0;entryY=0.5;entryDx=0;entryDy=0;" edge="1" parent="1" source="sxIQwb_I3t_nb9_98Hzz-2" target="sxIQwb_I3t_nb9_98Hzz-11">
          <mxGeometry width="50" height="50" relative="1" as="geometry">
            <mxPoint x="120" y="260" as="sourcePoint" />
            <mxPoint x="280" y="535" as="targetPoint" />
          </mxGeometry>
        </mxCell>
        <mxCell id="sxIQwb_I3t_nb9_98Hzz-20" value="" style="endArrow=classic;html=1;rounded=0;exitX=1;exitY=0.3333333333333333;exitDx=0;exitDy=0;exitPerimeter=0;entryX=0;entryY=0.5;entryDx=0;entryDy=0;" edge="1" parent="1" source="sxIQwb_I3t_nb9_98Hzz-4" target="sxIQwb_I3t_nb9_98Hzz-10">
          <mxGeometry width="50" height="50" relative="1" as="geometry">
            <mxPoint x="120" y="260" as="sourcePoint" />
            <mxPoint x="280" y="635" as="targetPoint" />
          </mxGeometry>
        </mxCell>
        <mxCell id="sxIQwb_I3t_nb9_98Hzz-23" value="&lt;b&gt;&lt;font style=&quot;font-size: 17px;&quot;&gt;Use Case Otomatisasi Payroll berdasarkan penilaian Kinerja&lt;/font&gt;&lt;/b&gt;" style="text;html=1;strokeColor=none;fillColor=none;align=center;verticalAlign=middle;whiteSpace=wrap;rounded=0;" vertex="1" parent="1">
          <mxGeometry x="180" y="30" width="470" height="30" as="geometry" />
        </mxCell>
      </root>
    </mxGraphModel>
  </diagram>
  <diagram id="D-c_qkVQhmyZWwqs4uyo" name="Activity Diagram">
    <mxGraphModel dx="1434" dy="750" grid="1" gridSize="10" guides="1" tooltips="1" connect="1" arrows="1" fold="1" page="1" pageScale="1" pageWidth="850" pageHeight="1100" math="0" shadow="0">
      <root>
        <mxCell id="0" />
        <mxCell id="1" parent="0" />
        <mxCell id="Im_IDdCaQdYYhjCN_loz-68" value="a" style="group" vertex="1" connectable="0" parent="1">
          <mxGeometry x="400" y="80" width="280" height="510" as="geometry" />
        </mxCell>
        <mxCell id="Im_IDdCaQdYYhjCN_loz-69" value="Sistem" style="rounded=0;whiteSpace=wrap;html=1;" vertex="1" parent="Im_IDdCaQdYYhjCN_loz-68">
          <mxGeometry width="280" height="40" as="geometry" />
        </mxCell>
        <mxCell id="Im_IDdCaQdYYhjCN_loz-70" value="" style="rounded=0;whiteSpace=wrap;html=1;fillColor=none;" vertex="1" parent="Im_IDdCaQdYYhjCN_loz-68">
          <mxGeometry y="40" width="280" height="470" as="geometry" />
        </mxCell>
        <mxCell id="Im_IDdCaQdYYhjCN_loz-73" value="Tampilkan halaman data formulir" style="rounded=1;whiteSpace=wrap;html=1;arcSize=40;fontColor=#000000;fillColor=#ffffc0;strokeColor=#ff0000;" vertex="1" parent="Im_IDdCaQdYYhjCN_loz-68">
          <mxGeometry x="80" y="100" width="120" height="40" as="geometry" />
        </mxCell>
        <mxCell id="Im_IDdCaQdYYhjCN_loz-83" value="Menampilkan formulir BARS" style="rounded=1;whiteSpace=wrap;html=1;arcSize=40;fontColor=#000000;fillColor=#ffffc0;strokeColor=#ff0000;" vertex="1" parent="Im_IDdCaQdYYhjCN_loz-68">
          <mxGeometry x="80" y="170" width="120" height="40" as="geometry" />
        </mxCell>
        <mxCell id="Im_IDdCaQdYYhjCN_loz-89" value="Menyimpan data formulir" style="rounded=1;whiteSpace=wrap;html=1;arcSize=40;fontColor=#000000;fillColor=#ffffc0;strokeColor=#ff0000;" vertex="1" parent="Im_IDdCaQdYYhjCN_loz-68">
          <mxGeometry x="70" y="330" width="120" height="40" as="geometry" />
        </mxCell>
        <mxCell id="Im_IDdCaQdYYhjCN_loz-94" value="Tampilkan halaman data formulir" style="rounded=1;whiteSpace=wrap;html=1;arcSize=40;fontColor=#000000;fillColor=#ffffc0;strokeColor=#ff0000;" vertex="1" parent="Im_IDdCaQdYYhjCN_loz-68">
          <mxGeometry x="70" y="400" width="120" height="40" as="geometry" />
        </mxCell>
        <mxCell id="Im_IDdCaQdYYhjCN_loz-95" value="" style="edgeStyle=orthogonalEdgeStyle;html=1;verticalAlign=bottom;endArrow=open;endSize=8;strokeColor=#ff0000;rounded=0;entryX=0.5;entryY=0;entryDx=0;entryDy=0;exitX=0.5;exitY=1;exitDx=0;exitDy=0;" edge="1" parent="Im_IDdCaQdYYhjCN_loz-68" source="Im_IDdCaQdYYhjCN_loz-89" target="Im_IDdCaQdYYhjCN_loz-94">
          <mxGeometry relative="1" as="geometry">
            <mxPoint x="80" y="360" as="targetPoint" />
            <mxPoint x="-70" y="360" as="sourcePoint" />
          </mxGeometry>
        </mxCell>
        <mxCell id="Im_IDdCaQdYYhjCN_loz-96" value="" style="ellipse;html=1;shape=endState;fillColor=#000000;strokeColor=#ff0000;" vertex="1" parent="Im_IDdCaQdYYhjCN_loz-68">
          <mxGeometry x="115" y="470" width="30" height="30" as="geometry" />
        </mxCell>
        <mxCell id="Im_IDdCaQdYYhjCN_loz-97" value="" style="edgeStyle=orthogonalEdgeStyle;html=1;verticalAlign=bottom;endArrow=open;endSize=8;strokeColor=#ff0000;rounded=0;entryX=0.5;entryY=0;entryDx=0;entryDy=0;exitX=0.5;exitY=1;exitDx=0;exitDy=0;" edge="1" parent="Im_IDdCaQdYYhjCN_loz-68" source="Im_IDdCaQdYYhjCN_loz-94" target="Im_IDdCaQdYYhjCN_loz-96">
          <mxGeometry relative="1" as="geometry">
            <mxPoint x="140" y="410" as="targetPoint" />
            <mxPoint x="140" y="380" as="sourcePoint" />
          </mxGeometry>
        </mxCell>
        <mxCell id="Im_IDdCaQdYYhjCN_loz-11" value="&lt;b&gt;&lt;font style=&quot;font-size: 15px;&quot;&gt;Membuat formulir Penilaian&lt;/font&gt;&lt;/b&gt;" style="text;html=1;strokeColor=none;fillColor=none;align=center;verticalAlign=middle;whiteSpace=wrap;rounded=0;" vertex="1" parent="1">
          <mxGeometry x="120" y="40" width="560" height="30" as="geometry" />
        </mxCell>
        <mxCell id="Im_IDdCaQdYYhjCN_loz-65" value="" style="group;fillColor=none;labelBackgroundColor=none;" vertex="1" connectable="0" parent="1">
          <mxGeometry x="120" y="80" width="280" height="510" as="geometry" />
        </mxCell>
        <mxCell id="Im_IDdCaQdYYhjCN_loz-66" value="" style="group" vertex="1" connectable="0" parent="Im_IDdCaQdYYhjCN_loz-65">
          <mxGeometry width="280" height="510" as="geometry" />
        </mxCell>
        <mxCell id="Im_IDdCaQdYYhjCN_loz-63" value="Admin HR" style="rounded=0;whiteSpace=wrap;html=1;" vertex="1" parent="Im_IDdCaQdYYhjCN_loz-66">
          <mxGeometry width="280" height="40" as="geometry" />
        </mxCell>
        <mxCell id="Im_IDdCaQdYYhjCN_loz-62" value="" style="rounded=0;whiteSpace=wrap;html=1;fillColor=none;" vertex="1" parent="Im_IDdCaQdYYhjCN_loz-66">
          <mxGeometry y="40" width="280" height="470" as="geometry" />
        </mxCell>
        <mxCell id="Im_IDdCaQdYYhjCN_loz-71" value="Klik menu BARS" style="rounded=1;whiteSpace=wrap;html=1;arcSize=40;fontColor=#000000;fillColor=#ffffc0;strokeColor=#ff0000;" vertex="1" parent="Im_IDdCaQdYYhjCN_loz-66">
          <mxGeometry x="80" y="100" width="120" height="40" as="geometry" />
        </mxCell>
        <mxCell id="Im_IDdCaQdYYhjCN_loz-81" value="Klik tombol Add" style="rounded=1;whiteSpace=wrap;html=1;arcSize=40;fontColor=#000000;fillColor=#ffffc0;strokeColor=#ff0000;" vertex="1" parent="Im_IDdCaQdYYhjCN_loz-66">
          <mxGeometry x="80" y="170" width="120" height="40" as="geometry" />
        </mxCell>
        <mxCell id="Im_IDdCaQdYYhjCN_loz-85" value="mengisi data kriteria, sub kriteria, dan skala penilaian" style="rounded=1;whiteSpace=wrap;html=1;arcSize=40;fontColor=#000000;fillColor=#ffffc0;strokeColor=#ff0000;" vertex="1" parent="Im_IDdCaQdYYhjCN_loz-66">
          <mxGeometry x="50" y="240" width="180" height="60" as="geometry" />
        </mxCell>
        <mxCell id="Im_IDdCaQdYYhjCN_loz-86" value="Klik tombol simpan" style="rounded=1;whiteSpace=wrap;html=1;arcSize=40;fontColor=#000000;fillColor=#ffffc0;strokeColor=#ff0000;" vertex="1" parent="Im_IDdCaQdYYhjCN_loz-66">
          <mxGeometry x="80" y="330" width="120" height="40" as="geometry" />
        </mxCell>
        <mxCell id="Im_IDdCaQdYYhjCN_loz-91" value="" style="ellipse;html=1;shape=startState;fillColor=#000000;strokeColor=#ff0000;" vertex="1" parent="Im_IDdCaQdYYhjCN_loz-66">
          <mxGeometry x="125" y="50" width="30" height="30" as="geometry" />
        </mxCell>
        <mxCell id="Im_IDdCaQdYYhjCN_loz-92" value="" style="edgeStyle=orthogonalEdgeStyle;html=1;verticalAlign=bottom;endArrow=open;endSize=8;strokeColor=#ff0000;rounded=0;" edge="1" source="Im_IDdCaQdYYhjCN_loz-91" parent="Im_IDdCaQdYYhjCN_loz-66">
          <mxGeometry relative="1" as="geometry">
            <mxPoint x="140" y="90" as="targetPoint" />
          </mxGeometry>
        </mxCell>
        <mxCell id="Im_IDdCaQdYYhjCN_loz-72" value="" style="edgeStyle=orthogonalEdgeStyle;html=1;verticalAlign=bottom;endArrow=open;endSize=8;strokeColor=#ff0000;rounded=0;entryX=0;entryY=0.5;entryDx=0;entryDy=0;" edge="1" source="Im_IDdCaQdYYhjCN_loz-71" parent="1" target="Im_IDdCaQdYYhjCN_loz-73">
          <mxGeometry relative="1" as="geometry">
            <mxPoint x="260" y="270" as="targetPoint" />
          </mxGeometry>
        </mxCell>
        <mxCell id="Im_IDdCaQdYYhjCN_loz-82" value="" style="edgeStyle=orthogonalEdgeStyle;html=1;verticalAlign=bottom;endArrow=open;endSize=8;strokeColor=#ff0000;rounded=0;entryX=0.5;entryY=0;entryDx=0;entryDy=0;exitX=0.5;exitY=1;exitDx=0;exitDy=0;" edge="1" parent="1" source="Im_IDdCaQdYYhjCN_loz-73" target="Im_IDdCaQdYYhjCN_loz-81">
          <mxGeometry relative="1" as="geometry">
            <mxPoint x="490" y="200" as="targetPoint" />
            <mxPoint x="330" y="200" as="sourcePoint" />
          </mxGeometry>
        </mxCell>
        <mxCell id="Im_IDdCaQdYYhjCN_loz-88" value="" style="edgeStyle=orthogonalEdgeStyle;html=1;verticalAlign=bottom;endArrow=open;endSize=8;strokeColor=#ff0000;rounded=0;" edge="1" parent="1" target="Im_IDdCaQdYYhjCN_loz-86">
          <mxGeometry relative="1" as="geometry">
            <mxPoint x="270" y="330" as="targetPoint" />
            <mxPoint x="260" y="380" as="sourcePoint" />
          </mxGeometry>
        </mxCell>
        <mxCell id="Im_IDdCaQdYYhjCN_loz-90" value="" style="edgeStyle=orthogonalEdgeStyle;html=1;verticalAlign=bottom;endArrow=open;endSize=8;strokeColor=#ff0000;rounded=0;entryX=0;entryY=0.5;entryDx=0;entryDy=0;exitX=1;exitY=0.5;exitDx=0;exitDy=0;" edge="1" parent="1" source="Im_IDdCaQdYYhjCN_loz-86" target="Im_IDdCaQdYYhjCN_loz-89">
          <mxGeometry relative="1" as="geometry">
            <mxPoint x="270" y="420" as="targetPoint" />
            <mxPoint x="270" y="390" as="sourcePoint" />
          </mxGeometry>
        </mxCell>
        <mxCell id="Im_IDdCaQdYYhjCN_loz-87" value="" style="edgeStyle=orthogonalEdgeStyle;html=1;verticalAlign=bottom;endArrow=open;endSize=8;strokeColor=#ff0000;rounded=0;exitX=1;exitY=0.5;exitDx=0;exitDy=0;entryX=0;entryY=0.5;entryDx=0;entryDy=0;" edge="1" parent="1" source="Im_IDdCaQdYYhjCN_loz-81" target="Im_IDdCaQdYYhjCN_loz-83">
          <mxGeometry relative="1" as="geometry">
            <mxPoint x="270" y="250" as="targetPoint" />
            <mxPoint x="550" y="220" as="sourcePoint" />
          </mxGeometry>
        </mxCell>
        <mxCell id="Im_IDdCaQdYYhjCN_loz-93" value="" style="edgeStyle=orthogonalEdgeStyle;html=1;verticalAlign=bottom;endArrow=open;endSize=8;strokeColor=#ff0000;rounded=0;exitX=0.5;exitY=1;exitDx=0;exitDy=0;" edge="1" parent="1" source="Im_IDdCaQdYYhjCN_loz-83" target="Im_IDdCaQdYYhjCN_loz-85">
          <mxGeometry relative="1" as="geometry">
            <mxPoint x="490" y="280" as="targetPoint" />
            <mxPoint x="330" y="280" as="sourcePoint" />
          </mxGeometry>
        </mxCell>
      </root>
    </mxGraphModel>
  </diagram>
  <diagram id="d4y_O53Rq0PEaUcTE7kC" name="Sequence Diagram">
    <mxGraphModel dx="1050" dy="534" grid="1" gridSize="10" guides="1" tooltips="1" connect="1" arrows="1" fold="1" page="1" pageScale="1" pageWidth="850" pageHeight="1100" math="0" shadow="0">
      <root>
        <mxCell id="0" />
        <mxCell id="1" parent="0" />
      </root>
    </mxGraphModel>
  </diagram>
</mxfile>
